<svg width="513" height="513" viewBox="0 0 513 513" fill="none" xmlns="http://www.w3.org/2000/svg">
<g clip-path="url(#clip0_164_6)">
<path d="M256.5 11.1666C115.06 11.1666 0.5 123.807 0.5 262.729C0.5 373.897 73.844 468.169 175.54 501.407C188.34 503.775 193.033 495.988 193.033 489.311C193.033 483.337 192.82 467.508 192.713 446.537C121.503 461.705 106.484 412.788 106.484 412.788C94.836 383.753 78.004 375.988 78.004 375.988C54.8147 360.393 79.796 360.713 79.796 360.713C105.503 362.463 119.007 386.633 119.007 386.633C141.833 425.097 178.932 413.983 193.567 407.561C195.871 391.284 202.463 380.212 209.78 373.919C152.927 367.625 93.172 345.993 93.172 249.609C93.172 222.153 103.092 199.711 119.519 182.111C116.639 175.753 107.999 150.175 121.759 115.529C121.759 115.529 143.199 108.788 192.159 141.321C212.639 135.732 234.399 132.959 256.159 132.831C277.919 132.959 299.679 135.732 320.159 141.321C368.799 108.788 390.239 115.529 390.239 115.529C403.999 150.175 395.359 175.753 392.799 182.111C409.119 199.711 419.039 222.153 419.039 249.609C419.039 346.249 359.199 367.519 302.239 373.705C311.199 381.257 319.519 396.681 319.519 420.255C319.519 453.919 319.199 480.969 319.199 489.14C319.199 495.732 323.679 503.604 336.799 501.087C439.22 468.063 512.5 373.727 512.5 262.729C512.5 123.807 397.876 11.1666 256.5 11.1666Z" fill="white"/>
</g>
<defs>
<clipPath id="clip0_164_6">
<rect width="512" height="512" fill="white" transform="translate(0.5 0.5)"/>
</clipPath>
</defs>
</svg>
