<svg width="684" height="684" viewBox="0 0 684 684" fill="none" xmlns="http://www.w3.org/2000/svg">
<g clip-path="url(#clip0_164_2)">
<path d="M407.167 341.833C407.167 377.917 377.917 407.167 341.833 407.167C305.75 407.167 276.5 377.917 276.5 341.833C276.5 305.75 305.75 276.5 341.833 276.5C377.917 276.5 407.167 305.75 407.167 341.833Z" fill="white"/>
<path d="M494.625 226.24C491.484 217.729 486.474 210.026 479.963 203.703C473.641 197.193 465.943 192.182 457.427 189.042C450.521 186.359 440.146 183.167 421.036 182.297C400.365 181.354 394.167 181.151 341.833 181.151C289.495 181.151 283.297 181.349 262.63 182.292C243.521 183.167 233.141 186.359 226.24 189.042C217.724 192.182 210.021 197.193 203.703 203.703C197.193 210.026 192.182 217.724 189.036 226.24C186.354 233.146 183.161 243.526 182.292 262.635C181.349 283.302 181.146 289.5 181.146 341.839C181.146 394.172 181.349 400.37 182.292 421.042C183.161 440.151 186.354 450.526 189.036 457.432C192.182 465.948 197.187 473.646 203.698 479.969C210.021 486.479 217.719 491.49 226.234 494.63C233.141 497.318 243.521 500.51 262.63 501.38C283.297 502.323 289.49 502.521 341.828 502.521C394.172 502.521 400.37 502.323 421.031 501.38C440.141 500.51 450.521 497.318 457.427 494.63C474.521 488.036 488.031 474.526 494.625 457.432C497.307 450.526 500.5 440.151 501.375 421.042C502.318 400.37 502.516 394.172 502.516 341.839C502.516 289.5 502.318 283.302 501.375 262.635C500.505 243.526 497.312 233.146 494.625 226.24ZM341.833 442.479C286.245 442.479 241.182 397.422 241.182 341.833C241.182 286.245 286.245 241.187 341.833 241.187C397.417 241.187 442.479 286.245 442.479 341.833C442.479 397.422 397.417 442.479 341.833 442.479ZM446.458 260.729C433.469 260.729 422.937 250.198 422.937 237.208C422.937 224.219 433.469 213.687 446.458 213.687C459.448 213.687 469.979 224.219 469.979 237.208C469.974 250.198 459.448 260.729 446.458 260.729Z" fill="white"/>
<path d="M341.833 0.5C153.349 0.5 0.5 153.349 0.5 341.833C0.5 530.318 153.349 683.167 341.833 683.167C530.318 683.167 683.167 530.318 683.167 341.833C683.167 153.349 530.318 0.5 341.833 0.5ZM536.651 422.641C535.703 443.505 532.385 457.75 527.542 470.219C517.359 496.547 496.547 517.359 470.219 527.542C457.755 532.385 443.505 535.698 422.646 536.651C401.745 537.604 395.068 537.833 341.839 537.833C288.604 537.833 281.932 537.604 261.026 536.651C240.167 535.698 225.917 532.385 213.453 527.542C200.37 522.62 188.526 514.906 178.734 504.932C168.766 495.146 161.052 483.297 156.13 470.219C151.286 457.755 147.969 443.505 147.021 422.646C146.057 401.74 145.833 395.063 145.833 341.833C145.833 288.604 146.057 281.927 147.016 261.026C147.964 240.161 151.276 225.917 156.12 213.448C161.042 200.37 168.76 188.521 178.734 178.734C188.521 168.76 200.37 161.047 213.448 156.125C225.917 151.281 240.161 147.969 261.026 147.016C281.927 146.063 288.604 145.833 341.833 145.833C395.063 145.833 401.74 146.063 422.641 147.021C443.505 147.969 457.75 151.281 470.219 156.12C483.297 161.042 495.146 168.76 504.938 178.734C514.906 188.526 522.625 200.37 527.542 213.448C532.391 225.917 535.703 240.161 536.656 261.026C537.609 281.927 537.833 288.604 537.833 341.833C537.833 395.063 537.609 401.74 536.651 422.641Z" fill="white"/>
</g>
<defs>
<clipPath id="clip0_164_2">
<rect width="682.667" height="682.667" fill="white" transform="translate(0.5 0.5)"/>
</clipPath>
</defs>
</svg>
